:SAMPLES-PER-SECOND 30
:FULLY-SPECIFIED
:DEGREES
860
root  -61.335 39.5068 0.015635 -154.916 89.1079 -153.734
RightUpLeg  -9.03153 -1.98426 1.0812
RightLeg  25.0146 1.00519 -0.259043
RightFoot  -12.5491 -0.129805 -4.25997
RightToes  -1.16417e-010 0 -3.6325e-017
Spine  5.75213 -0.142565 10.9471
Spine1  6.28244 1.69467 -1.71883
HEad  -16.7756 -5.22765 -2.49052
LeftShoulder1  -0.496794 4.79624 -32.2977
LeftArm  9.90602 5.88435 -45.6615
LeftForeArm  22.1471 -19.5216 -5.17058
LeftHand  -0.0520747 8.16811 -0.290974
RightShoulder  -0.933655 -6.15944 28.5854
RightArm  18.0681 13.2346 50.1449
RightForeArm  9.94211 14.6843 6.24614
RightHand  -0.245684 5.60942 -2.91163
LeftUpLeg  -13.321 -2.68876 4.50234
LeftLeg  54.318 -0.0499326 0.395644
LeftFoot  -3.516 0.406966 -5.64368
LeftToes  3.13772e-010 -3.14513e-011 3.96022e-013
861
root  -60.5213 39.6412 0.0313643 142.117 89.5457 143.834
RightUpLeg  -6.2957 -3.36129 0.142389
RightLeg  23.5038 2.64535 0.120578
RightFoot  -13.2095 -0.16342 -4.54731
RightToes  -1.16417e-010 0 -3.6325e-017
Spine  5.83002 0.322545 10.8969
Spine1  6.22572 2.28542 -2.72654
HEad  -16.411 -5.57664 -2.63707
LeftShoulder1  -0.461199 4.70452 -32.2622
LeftArm  7.00504 6.44707 -44.4539
LeftForeArm  25.0635 -16.9903 -6.40079
LeftHand  -0.0704564 8.88672 -0.698518
RightShoulder  -0.883024 -6.05104 28.0894
RightArm  17.986 17.4425 50.8954
RightForeArm  8.40806 15.7293 5.847
RightHand  -0.298714 6.28384 -3.31769
LeftUpLeg  -15.1569 -2.40189 4.006
LeftLeg  50.2011 0.760495 1.40881
LeftFoot  -4.53669 0.352253 -5.46749
LeftToes  3.13772e-010 -3.14513e-011 3.96022e-013
862
root  -59.7217 39.7154 0.0388904 105.334 89.2098 107.097
RightUpLeg  -4.19435 -4.55537 -0.454389
RightLeg  22.1202 3.98056 0.258517
RightFoot  -13.9108 -0.198525 -4.66886
RightToes  -1.16417e-010 0 -3.6325e-017
Spine  5.55218 0.562635 11.3429
Spine1  6.06867 2.69321 -4.2055
HEad  -16.3545 -6.47506 -2.34253
LeftShoulder1  -0.436986 4.6512 -31.9432
LeftArm  2.53413 7.17135 -43.3662
LeftForeArm  29.5698 -14.13 -7.459
LeftHand  -0.0763896 8.29967 -1.14577
RightShoulder  -0.853702 -5.99295 27.6694
RightArm  18.4589 21.265 51.8168
RightForeArm  7.444 16.8037 5.54465
RightHand  -0.361718 5.45456 -4.17604
LeftUpLeg  -16.9966 -1.87062 3.7888
LeftLeg  44.2734 1.45178 1.90403
LeftFoot  -4.54054 0.348305 -5.39462
LeftToes  3.13772e-010 -3.14513e-011 3.96022e-013
863
root  -58.8825 39.7831 0.0240797 89.0804 88.7039 90.9244
RightUpLeg  -1.91031 -5.7264 -1.38202
RightLeg  20.5949 5.43499 0.540513
RightFoot  -14.6338 -0.231464 -4.60706
RightToes  -1.16417e-010 0 -3.6325e-017
Spine  5.32935 0.874164 10.8961
Spine1  6.04324 2.89339 -4.66572
HEad  -15.7412 -6.44278 -1.83443
LeftShoulder1  -0.496728 4.80065 -32.1684
LeftArm  -0.915803 7.93148 -42.2345
LeftForeArm  32.3371 -11.6973 -8.02611
LeftHand  -0.0678003 7.76404 -1.03513
RightShoulder  -0.716447 -5.67709 26.3246
RightArm  18.6377 23.9766 52.7295
RightForeArm  7.25403 18.1544 5.10143
RightHand  -0.325558 5.88866 -3.68024
LeftUpLeg  -17.8139 -0.502777 3.29155
LeftLeg  36.3123 1.40012 1.48613
LeftFoot  -4.04464 0.415603 -6.13751
LeftToes  3.13772e-010 -3.14513e-011 3.96022e-013
864
root  -58.0501 39.8409 0.0125728 84.9512 88.469 86.5515
RightUpLeg  0.154832 -6.70632 -1.99382
RightLeg  18.7785 6.60008 0.715143
RightFoot  -15.0694 -0.253982 -4.67785
RightToes  -1.16417e-010 0 -3.6325e-017
Spine  5.12576 1.23142 10.6634
Spine1  5.68598 3.18333 -5.39621
HEad  -17.3479 -6.18155 -2.485
LeftShoulder1  -0.428108 4.62251 -32.0924
LeftArm  -3.45631 8.99765 -41.357
LeftForeArm  35.0142 -9.78817 -8.12809
LeftHand  -0.11653 9.08615 -2.06247
RightShoulder  -0.729417 -5.73182 26.0812
RightArm  19.7301 26.2822 52.6629
RightForeArm  6.52107 19.4421 4.88002
RightHand  -0.296253 6.38911 -3.25513
LeftUpLeg  -18.3198 0.848104 2.96569
LeftLeg  27.1308 0.103686 0.395576
LeftFoot  -3.8175 0.44923 -6.48234
LeftToes  3.13772e-010 -3.14513e-011 3.96022e-013
